<?xml version="1.0" encoding="UTF-8"?>
<svg version="1.1" xmlns="http://www.w3.org/2000/svg" width="346" height="78">
<path d="M0 0 C114.18 0 228.36 0 346 0 C346 25.74 346 51.48 346 78 C231.82 78 117.64 78 0 78 C0 52.26 0 26.52 0 0 Z " fill="#1A1E28" transform="translate(0,0)"/>
<path d="M0 0 C2.99021018 2.47017362 4.85373748 4.78060622 7 8 C7.49223171 13.70988778 6.64731569 17.74045571 4.4609375 23.01953125 C4.30882812 23.67308594 4.15671875 24.32664062 4 25 C4.66 25.99 5.32 26.98 6 28 C4.33388095 28.042721 2.66617115 28.04063832 1 28 C0.67 27.67 0.34 27.34 0 27 C-1.56113697 26.89416021 -3.12414803 26.81543177 -4.6875 26.75 C-10.09036971 26.26304608 -12.325427 24.95016598 -16 21 C-18.53956114 16.75280293 -18.6715578 12.83521617 -18 8 C-16.19735922 4.25605377 -14.63417235 2.44680324 -11.25 0.0625 C-7.16273701 -1.27372059 -4.08410576 -1.39785888 0 0 Z " fill="#29AFBF" transform="translate(198,26)"/>
<path d="M0 0 C1.65 0 3.3 0 5 0 C5 1.32 5 2.64 5 4 C5.66 4 6.32 4 7 4 C7 3.01 7 2.02 7 1 C7.99 1 8.98 1 10 1 C10 2.98 10 4.96 10 7 C10.66 7 11.32 7 12 7 C12 6.01 12 5.02 12 4 C14.31 4 16.62 4 19 4 C19 10.6 19 17.2 19 24 C16.69 24 14.38 24 12 24 C12 19.38 12 14.76 12 10 C11.34 10 10.68 10 10 10 C10 11.98 10 13.96 10 16 C9.01 16 8.02 16 7 16 C6.67 17.32 6.34 18.64 6 20 C6.99 20 7.98 20 9 20 C9 21.32 9 22.64 9 24 C5.625 24.125 5.625 24.125 2 24 C0 22 0 22 -0.1953125 18.7421875 C-0.17210937 17.46601562 -0.14890625 16.18984375 -0.125 14.875 C-0.10695313 13.59367187 -0.08890625 12.31234375 -0.0703125 10.9921875 C-0.04710937 10.00476562 -0.02390625 9.01734375 0 8 C-0.99 8 -1.98 8 -3 8 C-3 6.68 -3 5.36 -3 4 C-2.01 4 -1.02 4 0 4 C0 2.68 0 1.36 0 0 Z " fill="#1C3F3F" transform="translate(277,28)"/>
<path d="M0 0 C2.7132114 1.37788579 3.93248622 2.66044494 6 5 C6 5.99 6 6.98 6 8 C3.1875 8.1875 3.1875 8.1875 0 8 C-0.495 7.484375 -0.99 6.96875 -1.5 6.4375 C-1.995 5.963125 -2.49 5.48875 -3 5 C-6.11993606 5.07542341 -6.11993606 5.07542341 -9 6 C-10.38226016 8.76452033 -10.09525387 11.0461363 -10.0625 14.125 C-10.04896484 15.76855469 -10.04896484 15.76855469 -10.03515625 17.4453125 C-10.02355469 18.28835937 -10.01195312 19.13140625 -10 20 C-7.03 20 -4.06 20 -1 20 C-0.34 18.68 0.32 17.36 1 16 C-0.65 16 -2.3 16 -4 16 C-4 14.68 -4 13.36 -4 12 C-0.7 12 2.6 12 6 12 C6.49029622 19.23186925 6.49029622 19.23186925 4.125 22.9375 C0.43733863 26.51670074 -2.55592142 26.33854997 -7.51953125 26.28125 C-11.06688108 25.87903081 -12.68718177 24.67419608 -15 22 C-17.74714732 17.55223767 -17.81661028 12.06136666 -17 7 C-13.13371689 -0.15765422 -7.545952 -1.04997191 0 0 Z " fill="#3B8DF0" transform="translate(66,26)"/>
<path d="M0 0 C1.98 0 3.96 0 6 0 C6.99 3.63 7.98 7.26 9 11 C9.4640625 8.5559375 9.4640625 8.5559375 9.9375 6.0625 C10.875 1.125 10.875 1.125 12 0 C13.66617115 -0.04063832 15.33388095 -0.042721 17 0 C16.31939468 4.31268177 15.4728306 8.55636611 14.5 12.8125 C14.2421875 13.95332031 13.984375 15.09414063 13.71875 16.26953125 C13 19 13 19 12 20 C10.00041636 20.04080783 7.99954746 20.04254356 6 20 C5.01 16.37 4.02 12.74 3 9 C1.4268854 12.9327865 0.57267372 15.89583836 0 20 C-2.31 20 -4.62 20 -7 20 C-7.67099984 17.39688008 -8.33695338 14.79264602 -9 12.1875 C-9.19078125 11.44951172 -9.3815625 10.71152344 -9.578125 9.95117188 C-10.35262914 6.89464659 -11 4.16626522 -11 1 C-9.35 1 -7.7 1 -6 1 C-5.01 4.3 -4.02 7.6 -3 11 C-2.01 7.37 -1.02 3.74 0 0 Z " fill="#329CD4" transform="translate(123,32)"/>
<path d="M0 0 C4.29980658 2.38878143 4.29980658 2.38878143 6 5 C7.16112886 10.02332342 6.77980093 13.74225657 4.0625 18.125 C-0.03054636 20.63094675 -3.31270319 20.96374327 -8 20 C-11.03215675 17.80168636 -11.81654398 16.55036806 -13 13 C-13.375 9.625 -13.375 9.625 -13 6 C-9.01674736 1.17816785 -6.28391573 -0.7250672 0 0 Z " fill="#3698E1" transform="translate(103,32)"/>
<path d="M0 0 C1.98 0 3.96 0 6 0 C6.33 2.31 6.66 4.62 7 7 C8.0725 6.773125 9.145 6.54625 10.25 6.3125 C14 6 14 6 16.21875 6.9375 C19.03770591 10.20155421 18.42732882 13.53050319 18.25 17.6875 C18.23195312 18.48478516 18.21390625 19.28207031 18.1953125 20.10351562 C18.14822247 22.06952449 18.07647899 24.03491494 18 26 C16.35 26 14.7 26 13 26 C12.67 21.38 12.34 16.76 12 12 C10.35 12 8.7 12 7 12 C6.67 16.62 6.34 21.24 6 26 C4.02 26 2.04 26 0 26 C0 17.42 0 8.84 0 0 Z " fill="#2CA6C6" transform="translate(158,26)"/>
<path d="M0 0 C2.328125 2.0234375 2.328125 2.0234375 2.72875977 3.86352539 C2.82163543 6.16472043 2.76325043 8.41123899 2.640625 10.7109375 C2.61806641 11.50822266 2.59550781 12.30550781 2.57226562 13.12695312 C2.51339444 15.09325084 2.42371255 17.05858241 2.328125 19.0234375 C-0.00520833 19.0234375 -2.33854167 19.0234375 -4.671875 19.0234375 C-5.80625 19.0646875 -6.940625 19.1059375 -8.109375 19.1484375 C-11.671875 19.0234375 -11.671875 19.0234375 -14.671875 17.0234375 C-14.859375 13.3984375 -14.859375 13.3984375 -14.671875 10.0234375 C-7.38616071 6.59486607 -7.38616071 6.59486607 -2.671875 7.0234375 C-3.001875 6.0334375 -3.331875 5.0434375 -3.671875 4.0234375 C-6.971875 4.3534375 -10.271875 4.6834375 -13.671875 5.0234375 C-12.671875 1.0234375 -12.671875 1.0234375 -10.984375 -0.2265625 C-7.00504476 -1.51715609 -3.92686828 -1.43525888 0 0 Z " fill="#23C0B1" transform="translate(245.671875,32.9765625)"/>
<path d="M0 0 C1.98 0 3.96 0 6 0 C6.33 4.95 6.66 9.9 7 15 C8.65 14.67 10.3 14.34 12 14 C12.33 9.71 12.66 5.42 13 1 C14.65 1 16.3 1 18 1 C18 7.27 18 13.54 18 20 C16.35 20 14.7 20 13 20 C12.67 19.34 12.34 18.68 12 18 C11.34 18.66 10.68 19.32 10 20 C6.55000256 20.44999967 4.71786645 20.49658862 1.8203125 18.4921875 C-0.7187945 15.01589937 -0.43940605 11.873224 -0.25 7.75 C-0.23195312 7.00492188 -0.21390625 6.25984375 -0.1953125 5.4921875 C-0.14835649 3.66090299 -0.07661652 1.83028351 0 0 Z " fill="#26B0B3" transform="translate(209,32)"/>
<path d="M0 0 C1.65 0 3.3 0 5 0 C5.33 0.66 5.66 1.32 6 2 C6.99 1.34 7.98 0.68 9 0 C12.5625 0.1875 12.5625 0.1875 16 1 C18.52775351 4.79163027 18.22443035 7.80874031 18.125 12.1875 C18.11597656 12.93708984 18.10695313 13.68667969 18.09765625 14.45898438 C18.07412578 16.30612654 18.03825561 18.15310412 18 20 C16.35 20 14.7 20 13 20 C12.67 15.05 12.34 10.1 12 5 C10.02 5.66 8.04 6.32 6 7 C5.67 11.29 5.34 15.58 5 20 C3.35 20 1.7 20 0 20 C0 13.4 0 6.8 0 0 Z " fill="#20C5A9" transform="translate(253,32)"/>
<path d="M0 0 C2.3125 -0.3125 2.3125 -0.3125 5 0 C6.6875 2.4375 6.6875 2.4375 8 5 C8.66 5.33 9.32 5.66 10 6 C10.66 4.02 11.32 2.04 12 0 C13.98 0 15.96 0 18 0 C16.87548273 2.9719385 15.77706209 5.33440687 14 8 C14.30544707 12.58170605 15.8102075 16.00124847 18 20 C16.02 20 14.04 20 12 20 C11.34 18.02 10.68 16.04 10 14 C7.9754262 15.93254772 6.57894208 17.63158688 5 20 C2.375 20.1875 2.375 20.1875 0 20 C1.12451727 17.0280615 2.22293791 14.66559313 4 12 C3.68374779 7.99413869 2.0906221 5.36317468 0 2 C0 1.34 0 0.68 0 0 Z " fill="#1ACD95" transform="translate(299,32)"/>
<path d="M0 0 C2.3125 1.4375 2.3125 1.4375 4 4 C4.43818503 7.04565647 4.5045676 9.96086026 4 13 C3.34 13.66 2.68 14.32 2 15 C0.68 15 -0.64 15 -2 15 C-2 15.66 -2 16.32 -2 17 C-4.375 16.6875 -4.375 16.6875 -7 16 C-9.67770289 11.98344566 -9.69000365 8.71928419 -9 4 C-6.5516034 0.28206442 -4.41370093 -0.88274019 0 0 Z " fill="#1D2A35" transform="translate(195,30)"/>
<path d="M0 0 C1.65 0 3.3 0 5 0 C5 1.32 5 2.64 5 4 C6.32 4 7.64 4 9 4 C9 5.32 9 6.64 9 8 C7.68 8 6.36 8 5 8 C5.33 11.63 5.66 15.26 6 19 C6.99 19.33 7.98 19.66 9 20 C9 21.32 9 22.64 9 24 C5.625 24.125 5.625 24.125 2 24 C0 22 0 22 -0.1953125 18.7421875 C-0.17210937 17.46601562 -0.14890625 16.18984375 -0.125 14.875 C-0.10695313 13.59367187 -0.08890625 12.31234375 -0.0703125 10.9921875 C-0.04710937 10.00476562 -0.02390625 9.01734375 0 8 C-0.99 8 -1.98 8 -3 8 C-3 6.68 -3 5.36 -3 4 C-2.01 4 -1.02 4 0 4 C0 2.68 0 1.36 0 0 Z " fill="#1ECBA3" transform="translate(277,28)"/>
<path d="M0 0 C1.65 0 3.3 0 5 0 C5 1.65 5 3.3 5 5 C6.32 5 7.64 5 9 5 C9 5.99 9 6.98 9 8 C7.68 8 6.36 8 5 8 C5.33 11.63 5.66 15.26 6 19 C6.99 19.33 7.98 19.66 9 20 C9 21.32 9 22.64 9 24 C5.625 24.125 5.625 24.125 2 24 C0 22 0 22 -0.1953125 18.7421875 C-0.17210937 17.46601562 -0.14890625 16.18984375 -0.125 14.875 C-0.10695312 13.59367187 -0.08890625 12.31234375 -0.0703125 10.9921875 C-0.04710937 10.00476562 -0.02390625 9.01734375 0 8 C-0.99 8 -1.98 8 -3 8 C-3 6.68 -3 5.36 -3 4 C-2.01 4 -1.02 4 0 4 C0 2.68 0 1.36 0 0 Z " fill="#30A7D3" transform="translate(145,28)"/>
<path d="M0 0 C1.32 0 2.64 0 4 0 C4 1.65 4 3.3 4 5 C2.02 5.66 0.04 6.32 -2 7 C-2.33 11.29 -2.66 15.58 -3 20 C-4.65 20 -6.3 20 -8 20 C-8 13.73 -8 7.46 -8 1 C-5.66666667 1 -3.33333333 1 -1 1 C-0.67 0.67 -0.34 0.34 0 0 Z " fill="#3995EC" transform="translate(85,32)"/>
<path d="M0 0 C1.65 0 3.3 0 5 0 C5 6.27 5 12.54 5 19 C3.35 19 1.7 19 0 19 C-0.9154645 14.53795824 -0.97847873 10.65454615 -0.5625 6.125 C-0.46066406 4.97257812 -0.35882813 3.82015625 -0.25390625 2.6328125 C-0.17011719 1.76398437 -0.08632812 0.89515625 0 0 Z " fill="#26BFBB" transform="translate(222,33)"/>
<path d="M0 0 C1.65 0 3.3 0 5 0 C5 6.27 5 12.54 5 19 C3.35 19 1.7 19 0 19 C0 12.73 0 6.46 0 0 Z " fill="#1CD5A3" transform="translate(290,33)"/>
<path d="M0 0 C2.5625 0.25 2.5625 0.25 5 1 C6.50662097 4.01324195 6.17770373 6.68286377 6 10 C5.34 10.66 4.68 11.32 4 12 C-0.55555556 11.44444444 -0.55555556 11.44444444 -2 10 C-2.27314815 4.26388889 -2.27314815 4.26388889 -2 2 C-1.34 1.34 -0.68 0.68 0 0 Z " fill="#1C2534" transform="translate(98,36)"/>
<path d="M0 0 C0.33 0.99 0.66 1.98 1 3 C2.98 3 4.96 3 7 3 C7 4.32 7 5.64 7 7 C6.01 7 5.02 7 4 7 C4.66 8.65 5.32 10.3 6 12 C1.125 11.125 1.125 11.125 0 10 C-0.07205511 8.31391034 -0.08386068 6.62499341 -0.0625 4.9375 C-0.05347656 4.01839844 -0.04445312 3.09929688 -0.03515625 2.15234375 C-0.02355469 1.44207031 -0.01195312 0.73179688 0 0 Z " fill="#1A202B" transform="translate(187,35)"/>
<path d="M0 0 C0.33 1.32 0.66 2.64 1 4 C2.32 4 3.64 4 5 4 C5 4.99 5 5.98 5 7 C5.99 7 6.98 7 8 7 C7.67 8.32 7.34 9.64 7 11 C5.02 10.34 3.04 9.68 1 9 C1 12.3 1 15.6 1 19 C0.67 19 0.34 19 0 19 C0 15.37 0 11.74 0 8 C1.32 8 2.64 8 4 8 C4 7.01 4 6.02 4 5 C2.68 5 1.36 5 0 5 C0 3.35 0 1.7 0 0 Z " fill="#214052" transform="translate(150,28)"/>
<path d="M0 0 C-0.33 1.65 -0.66 3.3 -1 5 C-2.65 5.33 -4.3 5.66 -6 6 C-6.33 4.68 -6.66 3.36 -7 2 C-4.35261084 0.5393715 -3.10551666 0 0 0 Z " fill="#1B353B" transform="translate(243,43)"/>
<path d="M0 0 C1.98 0 3.96 0 6 0 C6 0.33 6 0.66 6 1 C4.35 1 2.7 1 1 1 C1.33 3.31 1.66 5.62 2 8 C1.67 7.34 1.34 6.68 1 6 C0.34 6 -0.32 6 -1 6 C-1 8.31 -1 10.62 -1 13 C-1.33 13 -1.66 13 -2 13 C-2.22786458 10.98177083 -2.45572917 8.96354167 -2.68359375 6.9453125 C-2.91292961 4.92595684 -2.91292961 4.92595684 -4 3 C-2.68 3 -1.36 3 0 3 C0 2.01 0 1.02 0 0 Z " fill="#23435D" transform="translate(111,32)"/>
<path d="M0 0 C1.98 0.495 1.98 0.495 4 1 C3.67 2.65 3.34 4.3 3 6 C1.68 5.67 0.36 5.34 -1 5 C-0.67 3.35 -0.34 1.7 0 0 Z " fill="#1CC196" transform="translate(291,24)"/>
<path d="M0 0 C1.65 0.33 3.3 0.66 5 1 C5 1.99 5 2.98 5 4 C2.69 4.33 0.38 4.66 -2 5 C-1.34 3.35 -0.68 1.7 0 0 Z " fill="#1D3138" transform="translate(238,36)"/>
<path d="M0 0 C0.99 0 1.98 0 3 0 C3 1.32 3 2.64 3 4 C1.02 4 -0.96 4 -3 4 C-1.6875 2 -1.6875 2 0 0 Z " fill="#1A1D27" transform="translate(191,31)"/>
</svg>
